inDegrees=no
num_controls=7
num_derivatives=13
num_iterations=111
num_multipliers=7
num_parameters=0
num_slacks=7
num_states=26
objective=4.959966
objective_accelerations=0.698497
objective_balance=0.044825
objective_effort=0.673363
objective_height=3.436689
objective_ligament=0.106592
solver_duration=1138.978933
status=Solve_Succeeded
success=true
DataType=double
version=3
OpenSimVersion=4.4-2022-07-23-0e9fedc
endheader
time	/jointset/ground_pelvis/pelvis_tilt/value	/jointset/ground_pelvis/pelvis_tx/value	/jointset/ground_pelvis/pelvis_ty/value	/jointset/hip_l/hip_flexion_l/value	/jointset/hip_l/hip_adduction_l/value	/jointset/hip_l/hip_rotation_l/value	/jointset/back/lumbar_extension/value	/jointset/patellofemoral_l/patellar_flexion_l/value	/jointset/knee_l/knee_flexion_l/value	/jointset/knee_l/knee_adduction_l/value	/jointset/knee_l/knee_rotation_l/value	/jointset/ankle_l/ankle_angle_l/value	/jointset/subtalar_l/subtalar_angle_l/value	/jointset/ground_pelvis/pelvis_tilt/speed	/jointset/ground_pelvis/pelvis_tx/speed	/jointset/ground_pelvis/pelvis_ty/speed	/jointset/hip_l/hip_flexion_l/speed	/jointset/hip_l/hip_adduction_l/speed	/jointset/hip_l/hip_rotation_l/speed	/jointset/back/lumbar_extension/speed	/jointset/patellofemoral_l/patellar_flexion_l/speed	/jointset/knee_l/knee_flexion_l/speed	/jointset/knee_l/knee_adduction_l/speed	/jointset/knee_l/knee_rotation_l/speed	/jointset/ankle_l/ankle_angle_l/speed	/jointset/subtalar_l/subtalar_angle_l/speed	/forceset/tau_hip_flexion_l	/forceset/tau_hip_adduction_l	/forceset/tau_hip_rotation_l	/forceset/tau_knee_flexion_l	/forceset/tau_ankle_angle_l	/forceset/tau_subtalar_angle_l	/forceset/tau_lumbar_extension	lambda_cid13_p0	lambda_cid13_p1	lambda_cid13_p2	lambda_cid13_p3	lambda_cid13_p4	lambda_cid13_p5	lambda_cid14_p0	/jointset/ground_pelvis/pelvis_tilt/accel	/jointset/ground_pelvis/pelvis_tx/accel	/jointset/ground_pelvis/pelvis_ty/accel	/jointset/hip_l/hip_flexion_l/accel	/jointset/hip_l/hip_adduction_l/accel	/jointset/hip_l/hip_rotation_l/accel	/jointset/back/lumbar_extension/accel	/jointset/patellofemoral_l/patellar_flexion_l/accel	/jointset/knee_l/knee_flexion_l/accel	/jointset/knee_l/knee_adduction_l/accel	/jointset/knee_l/knee_rotation_l/accel	/jointset/ankle_l/ankle_angle_l/accel	/jointset/subtalar_l/subtalar_angle_l/accel	gamma_cid13_p0	gamma_cid13_p1	gamma_cid13_p2	gamma_cid13_p3	gamma_cid13_p4	gamma_cid13_p5	gamma_cid14_p0
1	-0.1044351264023339	-0.06703844117224793	0.4219735957689604	2.090002029665526	-0.2966572399189131	0.1221470950885185	-0.9598885585544061	2.093057250933201	2.093057250933296	0.1744464396172078	-0.1740398644176435	0.255612512679299	0.09487016990199364	0.0300663500078081	0.002520912799101564	0.06856844778111493	-0.2572078079862391	-0.01769887215961395	-0.04544537795755405	0.0006533189436459144	-0.133902646427759	-0.1339026464277195	-0.01466903375827168	-0.0002792454100093395	0.08847537586233335	0.01929748600604936	-0.3844714756297639	-0.03993515382809564	-0.06238483172180677	-0.4278740169464504	0.09750973304867422	4.826917599772087e-05	0.4382936191207092	-25.50967323311606	13.79706413147991	-13.335562995427	24.46754548373801	-849.7253523477324	-29.24166899148344	-0.02271620303371022	-0.7076359174758985	-0.6059854165150793	2.515737901341231	-7.487695155226946	-0.3543279943621143	-1.604194271510551	-0.01439085106072023	-6.769103923691541	-6.769103923690974	-1.205659354326084	-0.001558773124498087	1.029834440873213	0.05076142982097733	4.110305887330879e-09	1.556561148619982e-08	-2.659896209555588e-07	2.668815059948741e-08	-3.815257595783321e-08	-3.289671949123423e-07	3.414285305533939e-08
1.01	-0.1041699538476961	-0.06704359497624766	0.4227856026073866	2.08705418979564	-0.2968506360794606	0.1216166598610165	-0.9598826779745998	2.091378203593985	2.091378203593955	0.174235740765678	-0.1740423597207645	0.2565486101472481	0.09506726284991462	0.02298059841745457	-0.003550545620747337	0.09388163147930839	-0.3324562335324477	-0.02096568496871968	-0.06060488503040574	0.000521304550069951	-0.2020476113369573	-0.2020476113368999	-0.02754905467883352	-0.0002376507269434217	0.09867644805463825	0.02010840415092005	-0.3853645552566424	-0.03969285847484366	-0.06229862555797988	-0.4298858119746187	0.09742584820282015	0.0003228887142908024	0.4394009899659133	-25.65005090341471	13.71127846774823	-13.33205529466363	24.65034781557554	-851.5831643762496	-29.76035125912739	-0.02284355577123466	-0.707176426764241	-0.6075583087693154	2.546400457662557	-7.557824869984445	-0.3105917891833485	-1.4663069299183	-0.01283060592796476	-6.858320944620377	-6.858320944617835	-1.340879181939554	0.00425600759930553	1.005090762958789	0.094398415954506	1.957122038098092e-08	-1.278023712860418e-08	-3.68892517008717e-07	-6.917561877824493e-09	-7.404989617761525e-08	-5.20898422804782e-07	4.827467819289421e-08
1.02	-0.1039752651383369	-0.06710942981525624	0.4238521996535153	2.083350983947113	-0.2970762471412464	0.1209357339616781	-0.9598781623130406	2.08901348097166	2.089013480971734	0.1738939005575832	-0.1740449915933047	0.2575846877680072	0.0952720932611202	0.01596958094920193	-0.009615294202669092	0.1194864893215938	-0.4082810037053397	-0.02414185237785473	-0.07554351229297118	0.0003803352597203925	-0.2710377030496086	-0.2710377030495348	-0.04089730444001823	-0.0003065593007847622	0.1084714064289373	0.02084497866116091	-0.3862576348838745	-0.0394505631214257	-0.06221241939812523	-0.431897607002689	0.09734196335712351	0.0005975082529185084	0.4405083608108483	-25.77882563765343	13.62428467739675	-13.32929538554375	24.79576378982018	-853.2853763933048	-30.24456038010574	-0.02302669668240978	-0.6926890930554431	-0.6046434489294344	2.574072730159557	-7.602964080563716	-0.3361989143679602	-1.560018309453123	-0.016181830415335	-6.938129284381594	-6.938129284381303	-1.299305122450662	-0.0236594245060851	0.9486116772725804	0.03589270289513363	4.01388407758633e-08	-6.516683612032941e-08	-5.214777990720629e-07	-3.750107810052433e-08	-1.14546421701025e-07	-8.954681950836158e-07	7.764973855554309e-08
1.03	-0.1038499331730759	-0.06723570929419198	0.4251762419337605	2.078886900590854	-0.2973331127659602	0.120106541662127	-0.9598751602306607	2.085954979489088	2.085954979489028	0.1734163930700619	-0.1740488250457895	0.2587164113380968	0.09548386140174552	0.009146300964524335	-0.01562267541767264	0.1453647892175484	-0.4846080149231543	-0.02721011906189397	-0.09029458133329664	0.0002130927360568321	-0.3407699354745387	-0.3407699354744406	-0.05463135616122317	-0.0004579535777970338	0.1177786008303314	0.02149218171234621	-0.3871661217346409	-0.03913913711391741	-0.06200297124035965	-0.4340744954176618	0.09759280666285548	0.00101425243077217	0.4417015064734227	-25.78205402461776	13.44379621250306	-13.30045016589847	24.66103771880586	-854.9820457982518	-30.9142220563445	-0.02325160610154649	-0.6697158531200443	-0.5961103282038542	2.601100729102814	-7.658415003472329	-0.2888575755651908	-1.432580714165133	-0.01804373456958031	-7.006893137102344	-7.006893137098736	-1.414442214701765	-0.01072263909452907	0.9075651494361443	0.07676340531802625	6.075857041463583e-08	-1.177987488914111e-07	-6.74570044257962e-07	-6.80537555859322e-08	-1.550898778907984e-07	-1.271901625978638e-06	1.071803421347746e-07
1.04	-0.1037913476880186	-0.06742152755936187	0.426760345634923	2.073657378050195	-0.2976200044636773	0.1191298527693542	-0.9598740402276554	2.082195931099156	2.082195931099136	0.1728007476597536	-0.1740541410828943	0.2599383652177648	0.09570162743270905	0.002620284902065082	-0.02152305144950188	0.1714987735050403	-0.5613688405842623	-0.03014706695170975	-0.1050428308872457	3.919363390213551e-06	-0.4111470845216099	-0.4111470845214886	-0.06852488859219334	-0.0006030762466445215	0.1265174683462636	0.02204455672703115	-0.388074608585646	-0.03882771110640228	-0.06179352308533344	-0.4362513838325783	0.0978436499686718	0.001430996608701268	0.4428946521357962	-25.77418021084121	13.26135597321467	-13.27128461201513	24.49322555752106	-856.5286219447752	-31.55483379936567	-0.02353198832979898	-0.6332363086116054	-0.5832424122944034	2.625209608467012	-7.689726969222491	-0.3099351555232883	-1.559454412177388	-0.02456800021509785	-7.067112608809468	-7.067112608809421	-1.331201264404129	-0.0224051028735175	0.8349463001806414	0.0169270955950484	8.118360414315247e-08	-1.719124435642911e-07	-8.21632730641332e-07	-9.832833456671729e-08	-1.930303702698134e-07	-1.634945079682635e-06	1.358060417632639e-07
1.05	-0.1037962625200534	-0.06766565729213689	0.4286069771601127	2.067658501291689	-0.2979355555232935	0.1180062044292143	-0.959875167390149	2.077730214375052	2.077730214375003	0.1720450549587592	-0.1740610281789832	0.2612445105850183	0.09592433843814366	-0.003527737314038729	-0.02726961472234832	0.1978617592615228	-0.638440109324158	-0.03293398418245239	-0.1196625024712394	-0.0002305765347804422	-0.4820733150495545	-0.4820733150494174	-0.08264625267105714	-0.0007738113825134312	0.1345832695493299	0.02247515160035583	-0.3889780703534805	-0.03844206515260941	-0.06144184743813959	-0.4385600950092549	0.0983835750657605	0.001990057761036391	0.4441497922156094	-25.65323475265702	12.98603124555301	-13.21442851343332	24.07842498829174	-858.0189992715008	-32.38000584730412	-0.02385557937168355	-0.5942442227143653	-0.5653972514901838	2.646930658211653	-7.720854447702442	-0.2585433023006705	-1.409546171153563	-0.02307408369656706	-7.116969656269886	-7.116969656267475	-1.45736387287565	-0.01457726641449137	0.7731447836856092	0.05290334627620754	1.016025536244736e-07	-2.260724439216023e-07	-9.685069933121229e-07	-1.285942229692329e-07	-2.308895200297423e-07	-1.997570096599412e-06	1.644034631432924e-07
